<?xml version="1.0" standalone="no"?>
<!DOCTYPE svg PUBLIC "-//W3C//DTD SVG 20010904//EN"
 "http://www.w3.org/TR/2001/REC-SVG-20010904/DTD/svg10.dtd">
<svg version="1.0" xmlns="http://www.w3.org/2000/svg"
 width="890.000000pt" height="768.000000pt" viewBox="0 0 890.000000 768.000000"
 preserveAspectRatio="xMidYMid meet">

<g transform="translate(0.000000,768.000000) scale(0.100000,-0.100000)"
fill="#000000" stroke="none">
<path d="M4190 7383 c-318 -23 -690 -105 -993 -219 -206 -77 -568 -261 -676
-343 l-24 -18 23 -67 c12 -36 23 -66 26 -66 2 0 59 29 126 64 435 228 962 352
1581 373 l197 6 0 139 0 138 -107 -2 c-60 -1 -128 -3 -153 -5z"/>
<path d="M2334 6692 c-156 -117 -274 -220 -409 -356 -106 -108 -288 -317 -281
-324 2 -2 131 0 286 4 l282 7 9 24 c13 34 22 85 11 59 -9 -20 -19 -12 -17 14
0 9 8 14 20 12 16 -2 17 -1 5 7 -9 6 -19 6 -26 1 -6 -6 -15 -6 -20 -2 -4 4 -3
0 4 -10 8 -10 9 -19 3 -22 -5 -3 -12 0 -15 6 -3 7 -3 2 0 -12 5 -24 4 -24 -10
-6 -11 13 -12 23 -6 31 7 8 5 12 -4 12 -10 0 -13 -9 -10 -26 4 -25 3 -25 -11
-7 -8 10 -12 22 -10 26 2 4 -2 7 -10 7 -8 0 -12 -4 -10 -8 3 -3 -2 -12 -10
-19 -8 -7 -14 -24 -14 -39 1 -25 2 -25 9 4 8 31 9 30 15 -20 3 -21 2 -26 -5
-15 -9 13 -10 13 -10 0 0 -13 -1 -13 -10 0 -9 13 -10 13 -10 0 0 -13 -1 -13
-10 0 -9 13 -10 13 -10 0 0 -13 -1 -13 -10 0 -9 13 -10 13 -10 0 0 -13 -1 -13
-10 0 -9 13 -10 13 -10 0 -1 -8 -8 -2 -16 13 -9 16 -13 31 -10 34 3 3 10 -5
16 -18 10 -23 10 -23 6 -2 -2 13 0 26 5 29 9 5 13 -8 10 -36 -2 -12 0 -13 7
-1 8 11 10 11 15 0 3 -9 6 -10 6 -2 1 6 -3 15 -9 18 -5 3 -10 11 -10 16 0 16
20 -1 31 -25 l10 -21 -5 22 c-2 12 3 31 11 42 8 12 11 21 7 21 -3 0 0 8 7 18
11 15 11 15 -1 4 -8 -7 -15 -17 -15 -22 0 -18 -18 -15 -21 3 -1 11 -6 22 -9
25 -4 4 -5 0 -4 -8 2 -8 -1 -15 -6 -15 -6 0 -9 3 -8 6 1 3 -4 6 -11 6 -7 0
-13 -6 -13 -13 0 -7 5 -12 10 -11 5 1 11 -3 14 -10 2 -6 -4 -10 -14 -8 -10 1
-24 -2 -30 -8 -9 -6 -13 -6 -13 1 0 6 5 14 10 17 6 3 10 12 10 18 0 7 -5 4
-11 -6 -6 -9 -14 -15 -20 -12 -5 4 -6 -2 -2 -12 6 -16 5 -16 -11 -4 -9 8 -16
10 -15 5 1 -5 -4 -24 -11 -42 -9 -25 -15 -30 -21 -20 -7 11 -9 11 -9 -1 0 -8
-3 -12 -6 -8 -24 24 277 358 431 479 l70 55 33 102 c19 57 32 105 29 107 -2 2
-58 -36 -123 -84z m-264 -593 c0 -6 -4 -7 -10 -4 -5 3 -10 11 -10 16 0 6 5 7
10 4 6 -3 10 -11 10 -16z m90 -14 c5 3 12 0 16 -6 5 -9 11 -7 20 5 14 20 30 4
17 -16 -4 -7 -8 -17 -8 -23 0 -5 -8 -11 -17 -13 -10 -2 -18 1 -18 7 0 6 8 7
17 4 15 -6 16 -5 3 9 -14 14 -16 14 -28 -6 -7 -11 -11 -14 -8 -4 2 9 -1 24 -9
34 -11 16 -12 14 -9 -16 3 -29 2 -32 -7 -17 -6 10 -8 21 -5 24 3 3 1 13 -4 23
-14 25 1 33 17 10 8 -11 18 -18 23 -15z m-171 -25 c6 -20 5 -27 -4 -27 -7 0
-10 8 -8 17 3 10 -3 20 -13 24 -13 5 -14 4 -6 -7 7 -8 7 -18 2 -27 -9 -13 -10
-13 -10 0 0 13 -1 13 -10 0 -12 -19 -13 -8 -1 23 12 32 38 30 50 -3z"/>
<path d="M2261 6204 c0 -11 3 -14 6 -6 3 7 2 16 -1 19 -3 4 -6 -2 -5 -13z"/>
<path d="M2705 6199 c-4 -6 -5 -12 -2 -15 2 -3 7 2 10 11 7 17 1 20 -8 4z"/>
<path d="M4441 6160 c-2 -25 -2 -58 -1 -74 1 -17 -2 -26 -8 -22 -6 3 -13 2
-17 -4 -4 -6 -12 -7 -18 -3 -9 5 -9 3 -1 -8 13 -16 0 -79 -17 -79 -6 0 -6 6 0
19 13 24 6 60 -15 80 -14 14 -14 12 1 -11 9 -16 15 -29 11 -29 -23 -5 -32 -3
-43 11 -9 11 -9 19 0 30 11 13 10 13 -6 1 -12 -10 -15 -17 -7 -25 5 -5 10 -15
10 -20 -1 -6 -9 -1 -19 11 l-18 22 1 -37 c1 -20 5 -43 9 -49 5 -8 4 -13 -3
-13 -22 0 -35 84 -16 110 9 13 8 13 -5 3 -9 -7 -20 -9 -24 -5 -5 4 -4 0 1 -8
15 -25 14 -47 -1 -47 -10 0 -13 7 -10 18 3 9 1 20 -5 24 -6 3 -7 12 -4 18 4 7
3 8 -1 4 -13 -11 -15 -38 -2 -30 7 4 8 0 4 -11 -4 -10 -7 -21 -7 -24 0 -4 -5
0 -10 8 -7 11 -10 11 -10 2 0 -7 -5 -10 -10 -7 -6 4 -7 12 -3 18 11 18 12 38
2 31 -5 -3 -7 -9 -4 -13 2 -5 -4 -16 -15 -26 -11 -10 -20 -13 -20 -7 0 6 5 14
10 17 6 3 10 12 9 18 0 9 -2 8 -6 -1 -2 -6 -9 -9 -14 -6 -6 4 -6 10 0 18 8 9
7 13 -3 13 -14 0 -16 -14 -4 -33 4 -6 1 -20 -8 -30 -15 -19 -15 -19 -10 1 3
11 1 27 -5 35 -8 11 -9 9 -3 -10 6 -22 5 -23 -9 -12 -9 7 -14 22 -12 32 2 10
-4 25 -13 32 -15 11 -15 11 -6 -2 9 -13 10 -29 5 -71 0 -5 -5 -8 -11 -4 -5 3
-7 13 -4 23 5 14 4 15 -5 2 -6 -8 -11 -12 -12 -7 -2 10 -6 25 -9 35 -1 4 -2
11 -1 15 1 5 -3 6 -9 2 -8 -5 -8 -11 0 -20 7 -9 7 -15 1 -19 -5 -4 -14 2 -20
11 -6 10 -11 13 -11 6 0 -6 5 -15 10 -18 6 -3 10 -11 10 -17 0 -6 -9 -3 -20 7
-11 10 -17 23 -13 29 3 6 2 7 -3 3 -5 -5 -10 -13 -10 -18 -1 -5 -2 -14 -3 -20
0 -5 -5 -8 -11 -4 -5 3 -8 11 -6 18 1 7 1 9 -1 4 -3 -4 -9 -4 -14 -1 -6 4 -6
10 0 18 8 9 7 13 -3 13 -8 0 -12 -7 -11 -16 2 -9 4 -16 5 -16 1 0 3 -18 5 -40
5 -44 -10 -30 -19 19 -3 16 -8 31 -12 35 -4 3 -4 -2 -1 -11 3 -10 2 -20 -2
-23 -12 -7 -18 13 -16 47 1 15 -1 25 -5 23 -9 -5 -6 -58 4 -73 3 -6 2 -13 -3
-16 -10 -6 -24 31 -21 54 1 8 -1 12 -5 8 -6 -5 -8 -14 -14 -48 -1 -3 -5 2 -11
10 -5 9 -5 19 0 25 6 8 5 12 -4 12 -10 0 -13 -8 -10 -25 4 -21 3 -23 -10 -13
-8 7 -12 20 -9 29 4 14 3 15 -5 2 -6 -8 -9 -17 -6 -21 2 -4 0 -10 -6 -14 -5
-3 -10 0 -10 7 0 9 -3 9 -10 -2 -10 -16 -13 -10 -13 31 0 9 -6 16 -13 16 -7 0
-10 -5 -6 -11 3 -6 8 -19 9 -30 3 -16 1 -17 -12 -6 -8 7 -13 16 -10 20 3 5 1
11 -4 15 -6 3 -8 -3 -6 -15 2 -11 0 -22 -6 -25 -9 -6 -12 3 -12 37 0 10 -3 15
-8 13 -4 -3 -6 -18 -3 -33 4 -26 3 -26 -11 -8 -8 11 -15 14 -15 7 0 -7 -5 -9
-10 -6 -6 4 -7 11 -4 17 4 7 2 8 -5 4 -6 -4 -9 -12 -6 -17 4 -5 2 -9 -3 -9
-17 0 -22 13 -10 28 12 14 20 68 9 56 -3 -3 -6 -15 -6 -27 -1 -12 -6 -21 -12
-20 -7 2 -10 -6 -8 -18 3 -13 0 -19 -8 -16 -7 2 -12 18 -11 35 0 17 -3 29 -7
27 -3 -3 -5 -18 -4 -35 1 -16 -1 -30 -6 -30 -5 0 -9 6 -9 13 0 8 -4 7 -10 -3
-9 -14 -11 -13 -14 9 0 5 -4 13 -8 17 -4 4 -2 14 5 23 11 14 10 14 -6 2 -13
-10 -14 -17 -7 -26 8 -10 7 -16 -2 -21 -24 -16 -40 -13 -33 4 12 30 14 51 5
57 -4 3 -7 -3 -6 -12 4 -22 -14 -63 -26 -63 -5 0 -4 10 2 23 l11 22 -17 -22
c-16 -22 -44 -30 -57 -16 -4 3 1 16 10 27 18 21 18 21 -3 3 -11 -9 -25 -14
-29 -10 -5 5 -3 -1 5 -11 13 -17 13 -19 0 -14 -18 6 -21 47 -6 68 9 13 9 13
-5 2 -10 -8 -16 -25 -15 -42 1 -19 -3 -30 -10 -30 -8 0 -11 9 -9 21 3 17 2 19
-10 9 -8 -7 -12 -16 -9 -21 6 -11 -9 -12 -20 -2 -3 4 8 21 25 39 23 24 28 34
17 39 -7 5 -10 5 -6 0 10 -11 -11 -37 -23 -29 -5 3 -8 0 -7 -8 2 -7 -2 -12 -9
-11 -7 2 -10 -6 -8 -20 4 -21 4 -21 -10 -3 -8 10 -12 22 -10 27 3 4 1 10 -5
14 -6 4 -7 11 -4 17 4 7 2 8 -5 4 -9 -6 -9 -11 0 -22 6 -8 8 -14 5 -14 -4 0
-2 -9 4 -20 6 -11 7 -20 1 -20 -10 0 -25 30 -22 43 1 5 -3 6 -9 2 -6 -3 -8
-10 -5 -15 3 -4 -2 -13 -10 -20 -13 -11 -15 -9 -12 8 2 11 9 28 17 39 14 17
13 17 -8 -1 -12 -11 -22 -16 -22 -11 0 4 -6 2 -14 -5 -8 -6 -13 -17 -10 -24 7
-17 -45 -15 -55 3 -5 7 -7 26 -6 42 2 17 0 27 -4 24 -3 -4 -6 -15 -6 -26 0
-10 -4 -19 -10 -18 -5 1 -9 6 -7 12 2 7 0 9 -4 5 -4 -4 -14 -2 -23 4 -9 7 -8
3 3 -10 11 -13 21 -30 22 -39 3 -17 -1 -14 -34 31 -12 16 -22 25 -22 21 0 -4
9 -18 20 -32 11 -15 18 -28 15 -31 -2 -3 -14 6 -25 21 -21 27 -38 29 -64 8
-18 -15 -22 -1 -4 17 6 6 13 19 14 28 1 9 -1 13 -4 9 -4 -4 -7 -10 -7 -13 0
-15 -17 -32 -26 -26 -6 4 -6 11 1 19 8 9 8 15 0 20 -6 4 -10 3 -9 -2 1 -4 0
-11 -1 -15 -1 -5 -3 -12 -4 -18 0 -5 -5 -10 -11 -10 -5 0 -11 5 -11 10 -1 6
-3 13 -4 18 -1 4 -2 11 -1 15 1 5 -3 6 -9 2 -8 -5 -7 -11 1 -21 6 -8 8 -14 4
-14 -4 0 -2 -6 4 -13 6 -8 7 -18 3 -22 -4 -5 -1 -5 6 -1 6 4 12 2 12 -3 0 -28
-43 12 -45 41 0 3 -3 10 -7 14 -4 3 -6 -3 -3 -14 2 -12 0 -24 -6 -27 -9 -6
-11 5 -12 57 0 15 -3 25 -7 23 -4 -2 -6 -27 -4 -55 1 -27 -2 -50 -7 -50 -13 0
-20 18 -9 25 7 4 7 11 2 18 -5 7 -8 19 -7 28 2 9 -3 16 -11 16 -7 0 -10 -5 -6
-11 11 -18 9 -73 -3 -73 -6 0 -11 15 -10 34 2 27 0 31 -12 22 -10 -9 -11 -15
-2 -26 8 -9 9 -17 2 -24 -19 -19 -26 41 -8 61 12 14 13 20 4 26 -7 4 -10 3 -6
-3 4 -6 -1 -17 -10 -24 -15 -12 -16 -11 -11 9 4 12 2 20 -3 16 -5 -3 -9 2 -9
11 0 10 5 13 12 9 7 -5 8 -3 3 5 -5 9 -11 9 -17 3 -7 -7 -4 -30 9 -69 l20 -58
434 -2 c301 -1 435 -5 437 -12 2 -6 0 -11 -5 -11 -18 0 -93 -62 -87 -72 4 -6
10 -5 15 3 5 8 9 9 9 4 0 -6 -21 -31 -47 -55 -26 -25 -40 -36 -30 -24 9 11 14
24 10 28 -5 4 -1 6 7 4 8 -2 14 3 12 10 -1 8 2 11 7 8 5 -4 12 -2 15 3 4 5 2
12 -3 15 -9 6 -118 -70 -472 -328 l-136 -99 58 -176 c111 -339 209 -645 206
-647 -2 -2 -142 98 -312 222 -171 124 -328 239 -351 254 l-41 29 -349 -254
c-192 -139 -350 -252 -352 -251 -1 2 52 171 119 377 127 390 144 448 138 453
-2 2 -69 50 -149 108 -80 57 -181 132 -225 165 -44 33 -92 67 -106 77 l-26 17
-65 -103 c-109 -174 -136 -220 -217 -390 -133 -275 -223 -540 -280 -827 -55
-273 -65 -381 -66 -691 0 -290 7 -383 46 -615 249 -1481 1423 -2655 2904
-2904 229 -39 326 -46 600 -46 298 1 438 14 698 66 1486 298 2624 1518 2817
3021 10 84 22 222 26 306 l7 152 -1776 0 -1777 0 -3 1183 c-1 650 -4 1162 -6
1137z m-1473 -108 c19 16 31 17 50 5 18 -12 15 -23 -8 -24 -11 -1 -20 4 -20
10 0 8 -3 8 -8 2 -16 -23 -70 -5 -55 18 3 5 10 2 15 -7 9 -15 12 -16 26 -4z
m225 -8 c-4 -12 -8 -13 -14 -3 -9 15 -2 32 11 24 5 -3 6 -13 3 -21z m-309 1
c4 -10 0 -14 -14 -12 -11 2 -23 7 -27 12 -5 4 -3 5 4 1 6 -3 14 -2 18 4 8 14
12 13 19 -5z m221 -13 c-8 -8 -25 10 -19 20 4 6 9 5 15 -3 4 -7 6 -15 4 -17z
m1330 -39 c-1 -33 -4 -63 -6 -68 -3 -6 -5 -25 -4 -42 1 -18 -1 -30 -4 -27 -3
3 -6 10 -6 15 0 5 -4 9 -10 8 -5 -1 -9 -6 -7 -12 2 -6 -5 -4 -15 6 -25 22 -50
3 -30 -22 8 -12 6 -11 -9 2 -11 9 -23 14 -27 11 -7 -7 -2 36 8 59 12 28 -3 19
-18 -10 -15 -31 -15 -42 -4 -60 4 -6 2 -15 -4 -19 -7 -4 -9 -3 -5 4 3 6 2 13
-3 16 -5 4 -7 18 -5 33 4 23 3 25 -10 13 -9 -7 -13 -17 -9 -23 3 -6 1 -7 -5
-3 -11 7 -17 -6 -13 -27 1 -5 -3 -5 -9 -2 -8 5 -6 14 4 29 9 15 11 28 5 37 -5
8 -9 12 -10 9 -6 -34 -9 -43 -20 -56 -8 -10 -15 -11 -24 -4 -6 5 -15 6 -19 2
-4 -4 -6 -2 -4 3 2 6 -1 10 -7 10 -5 0 -9 -4 -7 -8 1 -5 -2 -6 -8 -2 -6 3 -7
11 -3 18 4 6 8 25 10 42 2 25 1 27 -8 12 -6 -9 -12 -26 -14 -37 -8 -39 -17
-42 -44 -16 -17 17 -27 37 -28 58 -1 30 -1 31 7 8 4 -14 9 -18 9 -10 1 13 2
13 11 0 8 -12 10 -12 11 5 0 19 1 19 8 1 7 -18 8 -18 14 -2 4 9 11 14 17 11 5
-3 10 0 11 7 0 10 2 11 6 0 4 -9 8 -10 18 -2 10 8 15 8 20 -1 6 -8 10 -7 16 2
7 12 9 12 9 0 0 -11 3 -11 17 0 15 12 16 12 8 -1 -4 -8 -4 -12 0 -7 5 4 10 18
11 30 2 12 0 16 -2 9 -6 -12 -24 -7 -24 7 0 22 33 3 47 -26 12 -27 18 -31 29
-22 10 8 11 16 5 23 -13 16 -10 57 4 47 5 -4 23 -7 38 -6 22 2 27 -1 22 -14
-8 -19 -8 -20 -6 -46 1 -17 4 -16 21 10 10 17 21 44 24 60 2 17 5 31 5 33 1 2
5 1 9 -2 5 -3 8 -31 7 -63z m-1195 47 c0 -5 -5 -10 -11 -10 -5 0 -7 5 -4 10 3
6 8 10 11 10 2 0 4 -4 4 -10z m772 -43 c-6 -22 -6 -22 -13 3 -6 22 -7 23 -8 4
-1 -25 23 -49 39 -39 5 3 10 14 10 23 0 15 2 15 10 2 5 -8 10 -10 10 -5 0 6
-4 17 -9 24 -8 12 -11 9 -16 -12 -4 -15 -11 -27 -17 -27 -5 0 -8 3 -6 8 2 4
10 19 18 35 l13 27 23 -21 c22 -21 24 -21 30 -4 7 17 8 17 21 -1 17 -24 16
-44 -1 -21 -13 16 -14 16 -20 1 -4 -9 -4 -19 -1 -22 3 -3 5 1 5 8 0 11 3 11
12 2 10 -10 16 -8 30 10 18 23 25 15 9 -11 -10 -16 -68 -25 -76 -11 -3 5 -11
7 -19 4 -20 -8 -7 -65 23 -99 16 -19 18 -23 5 -12 -18 15 -23 15 -32 4 -7 -8
-8 -18 -4 -22 4 -5 1 -5 -6 -1 -8 5 -10 12 -4 19 4 7 7 18 6 25 -1 6 -2 25 -3
42 -1 22 -5 28 -17 23 -13 -5 -13 -7 -2 -14 10 -7 10 -9 -2 -9 -13 0 -13 -1 0
-10 10 -6 11 -10 3 -10 -7 0 -13 -5 -13 -11 0 -5 4 -8 9 -5 14 9 6 -23 -9 -37
-12 -10 -12 -9 -2 5 9 11 10 18 2 23 -6 4 -9 14 -8 22 2 9 -2 18 -8 20 -12 4
-12 -25 -1 -44 4 -6 3 -15 -3 -18 -8 -5 -7 -12 2 -23 12 -15 11 -16 -5 -3 -12
10 -14 17 -7 26 7 8 4 17 -10 30 -20 18 -29 8 -10 -11 8 -8 5 -15 -7 -25 -16
-13 -17 -12 -5 3 9 11 10 18 2 23 -6 4 -10 12 -9 18 3 24 -1 38 -9 33 -10 -6
-9 -36 1 -53 4 -6 3 -15 -3 -18 -8 -5 -7 -12 2 -23 12 -15 11 -16 -5 -3 -12
10 -14 17 -7 26 7 8 4 17 -10 30 -20 18 -29 8 -10 -11 7 -7 3 -17 -12 -30
l-23 -19 18 22 c12 14 15 23 7 28 -6 3 -10 12 -9 18 3 24 -1 38 -9 33 -10 -6
-9 -36 1 -53 4 -6 2 -15 -5 -19 -7 -4 -10 -3 -5 1 4 5 0 17 -10 27 -15 17 -18
17 -34 2 -10 -9 -16 -20 -14 -25 3 -4 1 -10 -3 -13 -5 -3 -8 10 -7 30 1 19 -4
39 -11 45 -11 9 -12 2 -9 -33 3 -28 1 -38 -5 -28 -5 8 -7 17 -4 21 2 4 0 10
-5 14 -6 3 -7 13 -4 22 4 11 3 14 -6 9 -12 -8 -11 -42 3 -66 7 -12 6 -13 -4
-3 -11 10 -17 10 -29 1 -9 -7 -13 -8 -8 -3 9 10 -22 47 -34 39 -5 -3 -6 3 -2
13 6 16 5 16 -10 4 -9 -7 -14 -17 -11 -22 3 -5 2 -9 -3 -8 -20 3 -23 -2 -12
-23 9 -18 9 -20 0 -12 -7 6 -13 18 -14 25 -2 8 -7 14 -12 14 -6 0 -9 -3 -8 -6
1 -4 -8 -15 -20 -25 -21 -17 -21 -17 -6 0 16 17 16 20 1 46 -16 28 -16 30 7
54 13 14 27 23 32 21 4 -3 12 7 17 22 l9 28 12 -35 11 -35 -5 33 c-3 20 -1 31
5 27 6 -3 11 -18 11 -33 l1 -27 8 30 c4 17 8 26 9 21 0 -5 7 -3 15 3 10 8 16
9 21 1 3 -6 11 -7 17 -4 7 5 9 0 6 -14 -4 -12 -2 -22 3 -22 5 0 9 9 9 21 0 11
4 18 9 14 5 -3 13 0 17 6 5 9 11 7 21 -6 17 -24 17 -41 0 -26 -8 6 -18 7 -22
3 -5 -4 -5 -1 0 7 5 9 4 12 -3 7 -18 -11 -14 -29 4 -22 10 4 13 2 8 -6 -4 -7
-3 -8 4 -4 8 5 10 1 6 -11 -5 -15 -4 -16 5 -3 8 11 11 11 11 2 0 -9 7 -8 23 5
20 15 22 20 10 31 -7 8 -10 19 -6 25 4 6 10 1 15 -13 8 -22 10 -22 25 -7 16
16 18 15 30 -14 16 -39 37 -28 27 14 -3 18 -3 29 2 24 4 -4 9 -17 11 -29 2
-12 8 -27 13 -33 5 -7 7 -15 3 -18 -3 -4 -1 -7 5 -7 6 0 14 5 17 10 3 6 1 10
-5 10 -17 0 -29 43 -17 62 15 23 37 4 29 -25z m-158 -18 c-10 -17 -19 -9 -21
18 -1 26 0 26 13 9 7 -10 11 -23 8 -27z m357 26 c3 2 10 -5 17 -15 7 -12 8
-20 2 -20 -5 0 -10 6 -10 13 0 8 -3 8 -8 2 -7 -11 -52 -18 -52 -9 0 3 5 14 11
25 8 15 14 18 23 10 7 -6 15 -9 17 -6z m-641 -98 c0 -2 -15 -16 -32 -33 l-33
-29 29 33 c28 30 36 37 36 29z m-3 -35 c-10 -10 -14 -22 -10 -27 5 -4 2 -5 -5
-1 -11 6 -10 12 4 27 9 10 19 19 22 19 3 0 -2 -8 -11 -18z m128 -15 c1 -14 -2
-24 -6 -22 -4 3 -6 13 -5 23 2 9 -2 21 -8 25 -7 6 -6 7 4 5 8 -3 15 -16 15
-31z m151 21 c4 -7 3 -8 -4 -4 -7 4 -12 2 -12 -5 0 -7 -3 -10 -6 -6 -6 5 3 27
11 27 2 0 7 -5 11 -12z m533 -22 c9 -11 9 -16 -1 -22 -7 -4 -10 -4 -6 1 4 4 3
14 -3 22 -6 7 -9 13 -6 13 2 0 10 -6 16 -14z m-639 0 c0 -2 -8 -10 -17 -17
-16 -13 -17 -12 -4 4 13 16 21 21 21 13z m335 -5 c3 -5 2 -12 -3 -15 -5 -3 -9
1 -9 9 0 17 3 19 12 6z m70 0 c3 -5 2 -12 -3 -15 -5 -3 -9 1 -9 9 0 17 3 19
12 6z m130 0 c3 -5 2 -12 -3 -15 -5 -3 -9 1 -9 9 0 17 3 19 12 6z"/>
<path d="M4313 5994 c0 -7 4 -11 8 -9 19 13 13 -22 -7 -38 -21 -16 -24 -16
-32 -1 -12 21 -31 10 -27 -14 2 -9 4 -21 4 -25 1 -5 6 -5 11 -2 7 4 6 14 -1
28 -10 22 -10 22 8 -1 l18 -22 13 21 c18 29 39 10 22 -20 -14 -27 -4 -47 16
-30 12 9 12 15 2 28 -12 14 -11 14 5 2 20 -15 23 -2 5 18 -8 9 -9 12 -1 7 7
-4 9 1 6 14 -3 11 -9 20 -14 20 -5 0 -9 6 -9 14 0 8 -6 16 -13 19 -8 3 -14 -1
-14 -9z"/>
<path d="M4351 5994 c0 -11 3 -14 6 -6 3 7 2 16 -1 19 -3 4 -6 -2 -5 -13z"/>
<path d="M4420 6000 c0 -5 1 -11 2 -12 1 -2 -10 -15 -24 -30 -24 -27 -32 -63
-13 -63 5 0 8 8 7 17 -2 10 1 26 7 35 8 14 9 11 5 -13 -4 -20 -1 -34 7 -39 9
-6 11 -4 6 7 -3 9 -3 19 0 22 6 6 13 86 7 86 -2 0 -4 -4 -4 -10z"/>
<path d="M4170 5934 c-9 -23 -7 -31 12 -51 21 -22 23 -23 35 -7 7 9 10 20 8
24 -3 4 2 13 10 20 8 7 12 17 8 23 -4 6 -9 3 -14 -9 -7 -18 -8 -18 -8 1 -1 16
-3 17 -10 6 -6 -9 -6 -22 0 -32 6 -12 5 -20 -3 -25 -6 -4 -8 -3 -5 3 4 6 0 19
-8 29 -8 10 -14 24 -15 29 0 6 5 3 10 -5 6 -9 10 -10 10 -3 0 25 -20 23 -30
-3z m18 -39 c-3 -3 -9 2 -12 12 -6 14 -5 15 5 6 7 -7 10 -15 7 -18z"/>
<path d="M4127 5935 c-4 -8 -15 -12 -26 -10 -31 6 -33 -9 -6 -35 14 -13 25
-19 26 -14 1 16 7 38 14 57 4 9 5 17 2 17 -3 0 -7 -7 -10 -15z m-20 -30 c0 -8
-4 -12 -9 -9 -5 3 -6 10 -3 15 9 13 12 11 12 -6z"/>
<path d="M3713 6008 c-6 -7 -14 -24 -17 -38 -6 -19 -5 -21 3 -10 8 11 11 12
11 2 0 -7 4 -11 9 -7 5 3 13 0 17 -6 5 -8 3 -9 -6 -4 -8 5 -11 4 -6 -3 3 -6 2
-13 -4 -17 -6 -4 -7 -11 -4 -17 4 -7 2 -8 -5 -4 -9 6 -9 11 -1 21 8 9 8 15 0
20 -5 3 -10 0 -10 -7 -1 -7 -7 -2 -15 12 -8 14 -14 19 -15 11 0 -20 49 -83 60
-76 5 3 7 12 3 20 -6 19 13 44 31 41 8 -1 21 -8 30 -15 13 -11 16 -11 16 0 0
24 -17 42 -41 43 -13 0 -24 6 -24 13 0 22 -21 35 -32 21z m23 -10 c4 -7 3 -8
-4 -4 -7 4 -12 3 -12 -2 0 -6 7 -12 15 -16 8 -3 15 -11 14 -18 0 -10 -2 -10
-6 0 -2 6 -11 12 -19 12 -14 0 -19 21 -7 33 9 9 11 9 19 -5z m55 -45 c12 -16
12 -17 -2 -6 -9 7 -20 9 -24 5 -5 -4 -5 -1 -1 6 9 16 11 15 27 -5z"/>
<path d="M4066 5997 c3 -10 9 -15 12 -12 3 3 0 11 -7 18 -10 9 -11 8 -5 -6z"/>
<path d="M3641 5986 c-1 -11 -6 -16 -15 -13 -23 9 -51 -29 -40 -54 9 -20 11
-20 24 -5 10 13 10 16 0 14 -7 -2 -15 4 -17 12 -4 12 -3 12 5 1 12 -16 27 3
16 21 -4 7 -3 8 5 4 6 -4 9 -18 7 -31 -6 -31 7 -39 26 -17 13 14 14 22 2 52
-7 20 -13 27 -13 16z m6 -53 c-3 -10 -5 -4 -5 12 0 17 2 24 5 18 2 -7 2 -21 0
-30z"/>
<path d="M3868 5969 c-21 -17 -38 -27 -38 -22 0 4 -7 -5 -15 -21 -22 -41 -18
-45 11 -11 13 17 22 23 19 14 -4 -10 -1 -20 6 -25 8 -5 11 -2 6 8 -3 9 0 21 6
27 8 8 17 4 35 -16 13 -16 21 -21 19 -12 -3 9 0 22 6 28 8 8 17 4 33 -16 l23
-28 -4 35 c-2 19 -4 37 -4 39 -1 2 -7 -2 -15 -8 -11 -9 -18 -6 -32 13 l-19 25
-37 -30z m50 -27 c-9 -11 -14 -10 -26 2 -13 12 -13 18 -2 31 11 14 14 13 25
-2 10 -13 10 -22 3 -31z m49 3 c0 -8 -4 -12 -9 -9 -5 3 -6 10 -3 15 9 13 12
11 12 -6z"/>
<path d="M3892 5961 c4 -13 18 -16 19 -4 0 4 -5 9 -11 12 -7 2 -11 -2 -8 -8z"/>
<path d="M4186 5997 c3 -10 9 -15 12 -12 3 3 0 11 -7 18 -10 9 -11 8 -5 -6z"/>
<path d="M2246 6176 c6 -15 4 -17 -6 -11 -9 6 -11 4 -5 -4 5 -9 10 -10 18 -2
8 8 7 14 -2 24 -10 10 -11 8 -5 -7z"/>
<path d="M2079 6163 c-13 -16 -12 -17 4 -4 9 7 17 15 17 17 0 8 -8 3 -21 -13z"/>
<path d="M2760 6156 c0 -2 8 -10 18 -17 15 -13 16 -12 3 4 -13 16 -21 21 -21
13z"/>
<path d="M2869 6123 c-13 -16 -12 -17 4 -4 9 7 17 15 17 17 0 8 -8 3 -21 -13z"/>
<path d="M2993 6105 c0 -8 4 -12 9 -9 5 3 6 10 3 15 -9 13 -12 11 -12 -6z"/>
<path d="M3124 6075 c0 -24 4 -31 14 -27 8 2 9 8 4 11 -5 3 -8 14 -6 23 1 10
-1 20 -5 22 -4 3 -7 -10 -7 -29z"/>
<path d="M3705 6101 c-3 -5 -2 -12 3 -15 5 -3 9 1 9 9 0 17 -3 19 -12 6z"/>
<path d="M3153 6083 c0 -9 4 -10 14 -2 7 6 13 12 13 14 0 1 -6 2 -13 2 -8 0
-14 -6 -14 -14z"/>
<path d="M3386 6083 c-6 -14 -5 -15 5 -6 7 7 10 15 7 18 -3 3 -9 -2 -12 -12z"/>
<path d="M3435 6090 c-3 -5 -3 -10 1 -10 4 0 0 -8 -9 -18 -14 -15 -14 -19 -3
-19 8 0 15 3 14 6 0 3 1 8 2 11 4 12 8 40 5 40 -2 0 -7 -4 -10 -10z"/>
<path d="M3545 6081 c-3 -5 -2 -12 3 -15 5 -3 9 1 9 9 0 17 -3 19 -12 6z"/>
<path d="M3773 6065 c0 -8 4 -12 9 -9 5 3 6 10 3 15 -9 13 -12 11 -12 -6z"/>
</g>
</svg>
